<?xml version="1.0" encoding="utf-8"?>
<!-- Svg Vector Icons : http://www.onlinewebfonts.com/icon -->
<!DOCTYPE svg PUBLIC "-//W3C//DTD SVG 1.1//EN" "http://www.w3.org/Graphics/SVG/1.1/DTD/svg11.dtd">
<svg version="1.1" xmlns="http://www.w3.org/2000/svg" xmlns:xlink="http://www.w3.org/1999/xlink" x="0px" y="0px" viewBox="0 0 1000 1000" enable-background="new 0 0 1000 1000" xml:space="preserve">
<metadata> Svg Vector Icons : http://www.onlinewebfonts.com/icon </metadata>
<g><g transform="translate(0.000000,511.000000) scale(0.100000,-0.100000)"><path d="M741.3,4993.6c-90.1-26-218.4-160.3-244.4-254.4c-14-56.1-18-1482.4-16-4673.5l6-4595.3l48.1-76.1c26.1-42.1,84.1-100.2,128.2-130.2l82.1-54.1h3237.2h3237.2l82.1,54.1c44.1,30,102.1,88.1,128.2,130.2l48.1,76.1l6,1708.7l4,1710.7l-100.2-126.2l-100.2-124.2V-2899c0-1149.8-6-1552.5-24-1590.5c-52.1-116.2,140.2-110.2-3281.2-110.2c-3421.4,0-3229.1-6-3281.2,110.2c-18,40.1-24,1115.8-24,4599.3c0,4947.9-8,4627.4,110.2,4681.4c40.1,18,801.3,24,3197.1,24c3419.5,0,3227.2,6,3279.2-110.2c16-34.1,24-166.3,24-368.6V4020l102.1,50.1l102.2,50.1l-8,314.5c-6,300.5-8,316.5-60.1,394.6c-30,44.1-88.1,102.2-130.2,128.2l-76.1,48.1l-3205.1,4C2025.3,5011.6,781.4,5005.6,741.3,4993.6z"/><path d="M8710,4452.7c-142.2-36-260.4-80.1-310.5-114.2c-42.1-30-158.3-148.2-254.4-264.4c-96.2-114.2-186.3-214.3-200.3-224.4c-14-8-88.1-36.1-166.3-60.1c-250.4-76.1-270.4-90.1-516.8-420.7C6827,2788.1,6210,1838.6,5703.2,969.2c-382.6-657-466.7-899.4-468.8-1342.1c0-318.5,34.1-482.8,150.3-711.1l78.1-148.2l-430.7-777.2c-238.4-428.7-454.7-815.3-480.8-861.4c-28-48.1-46.1-86.1-42.1-86.1c6,0,298.5,340.5,653,759.2l643,757.2l104.2,14c146.2,20,590.9,122.2,793.3,184.3c138.2,42.1,188.3,68.1,268.4,144.2c166.3,156.2,358.6,472.8,741.2,1234c320.5,639,400.6,779.2,679.1,1193.9c172.3,258.4,420.7,619,550.9,801.3c298.5,414.7,356.6,530.8,398.7,779.2c18,106.2,66.1,328.5,104.2,492.8c60.1,242.4,74.1,340.5,74.1,510.8c2,190.3-4,220.3-54.1,324.5c-86.1,174.3-244.4,274.4-434.7,274.4C8980.4,4512.8,8836.2,4486.8,8710,4452.7z M9194.8,4262.4c102.2-76.1,126.2-142.2,124.2-348.6c0-144.2-16-252.4-66.1-450.7c-34-142.2-80.1-354.6-100.2-470.8c-46.1-262.4-84.1-340.5-376.6-749.2c-128.2-176.3-374.6-534.9-546.9-795.3c-272.4-406.6-360.6-560.9-627-1091.7c-342.6-683.1-490.8-951.5-623-1137.8C6849-963.9,6794.9-1004,6616.6-1060c-176.3-54.1-649-162.3-661.1-152.3c-4,4,520.8,865.4,1163.9,1911.1c1232,2001.2,1215.9,1973.1,1203.9,1973.1c-4,0-621-837.3-1368.2-1861C5775.3-801.7,5591-1044,5571-1014c-14,20-50.1,106.2-80.1,192.3c-50.1,144.2-56.1,182.3-54.1,438.7c0,246.4,8,302.5,56.1,460.7c66.1,220.4,224.4,524.8,562.9,1091.7c494.8,827.3,959.5,1534.4,1358.2,2069.3l220.4,294.5l158.3,50.1c254.4,80.1,296.5,110.2,494.8,348.6c100.1,122.2,202.3,232.4,228.3,246.4c24,12,130.2,48.1,234.4,80.1C8968.4,4322.5,9112.6,4324.5,9194.8,4262.4z"/><path d="M1478.5,3813.7v-200.3h2504h2504v200.3V4014h-2504h-2504V3813.7z"/><path d="M1478.5,2611.8v-200.3h2319.7h2317.7l120.2,184.3c66.1,100.2,124.2,190.3,126.2,198.3c4,10-1077.7,18-2437.9,18H1478.5V2611.8z"/><path d="M1478.5,1409.9v-200.3h1951.1h1951.1l112.2,188.3C5555,1502,5605,1592.2,5605,1598.2c0,6-927.5,12-2063.3,12H1478.5V1409.9z"/><path d="M2696.4,408.3C2267.7,332.2,1937.2,27.7,1829-387c-168.3-645,346.5-1308.1,1015.6-1308.1c294.5,0,522.8,92.1,739.2,294.5c336.5,316.5,426.7,797.3,228.4,1213.9c-160.3,340.5-504.8,574.9-881.4,603C2854.7,420.3,2748.5,418.3,2696.4,408.3z M2397.9-330.9c30.1-22,112.2-58.1,182.3-82.1c108.2-36.1,164.3-42.1,320.5-36.1c196.3,8,184.3,4,486.8,152.2c30,16,194.3-176.3,258.4-302.5c42.1-84.1,62.1-152.3,62.1-214.4c0-212.3-222.3-504.8-480.8-627c-128.2-60.1-148.2-64.1-366.6-64.1c-218.4,0-238.4,4-366.6,64.1c-186.3,88.1-338.5,238.4-428.7,418.7c-84.1,170.3-82.1,242.4,4,418.7c52.1,110.2,218.3,310.5,254.4,310.5C2333.8-292.8,2367.9-310.9,2397.9-330.9z"/><path d="M2029.3-2153.8c-314.5-250.4-512.8-540.9-554.9-815.3c-12-76.1-60.1-336.6-104.2-578.9l-84.1-440.7l1582.5-6c869.4-2,1584.5-2,1586.5,2c4,4-34.1,212.4-82.1,462.8c-50.1,250.4-90.1,482.8-90.1,514.8c0,90.1-74.1,292.5-156.2,428.7c-84.1,138.2-310.5,372.6-448.7,466.7l-94.2,64.1l-68.1-104.2c-36.1-58.1-156.3-252.4-264.4-430.7C3141.1-2770.8,3047-2917,3041-2917c-8,0-24,152.2-38.1,340.5c-22,330.5-22,340.5,16,378.6c42.1,42.1,38.1,96.2-6,126.2c-36.1,24-262.4,18-288.5-8c-34.1-34.1-30-88.1,8-126.2c28.1-28.1,32.1-66.1,20-276.4c-8-134.2-20-292.5-28-350.6l-14-106.2L2440-2498.4c-148.2,244.4-274.4,442.7-280.4,442.7C2153.5-2057.7,2095.4-2099.7,2029.3-2153.8z"/></g></g>
</svg>